<?xml version="1.0" encoding="iso-8859-1"?>
<!-- Generator: Adobe Illustrator 19.0.0, SVG Export Plug-In . SVG Version: 6.00 Build 0)  -->
<svg version="1.1" id="Capa_1" xmlns="http://www.w3.org/2000/svg" xmlns:xlink="http://www.w3.org/1999/xlink" x="0px" y="0px"
	 viewBox="0 0 480 480" style="enable-background:new 0 0 480 480;" xml:space="preserve">
<path style="fill:#8DC6F3;" d="M344,8H80c-8.837,0-16,7.163-16,16v432c0,8.837,7.163,16,16,16h320c8.837,0,16-7.163,16-16V80L344,8z
	"/>
<path style="fill:#5684A8;" d="M344,8v72c0,4.418,3.582,8,8,8h64v-8L344,8z"/>
<g>
	<path style="fill:#353535;" d="M416.992,69.816l-62.64-62.768C349.858,2.521,343.739-0.018,337.36,0H80C66.745,0,56,10.745,56,24
		v432c0,13.255,10.745,24,24,24h320c13.255,0,24-10.745,24-24V86.768C424.018,80.409,421.495,74.306,416.992,69.816z M408,456
		c0,4.418-3.582,8-8,8H80c-4.418,0-8-3.582-8-8V24c0-4.418,3.582-8,8-8h256v56c0,13.255,10.745,24,24,24h32V80h-32
		c-4.418,0-8-3.582-8-8V27.344l53.664,53.776c1.501,1.495,2.343,3.529,2.336,5.648V456z"/>
	<path style="fill:#353535;" d="M104,48h16v16h-16V48z"/>
	<path style="fill:#353535;" d="M136,48h160v16H136V48z"/>
	<path style="fill:#353535;" d="M104,80h192v16H104V80z"/>
	<path style="fill:#353535;" d="M104,144h16v16h-16V144z"/>
	<path style="fill:#353535;" d="M136,144h240v16H136V144z"/>
	<path style="fill:#353535;" d="M104,192h272v16H104V192z"/>
	<path style="fill:#353535;" d="M104,240h272v16H104V240z"/>
	<path style="fill:#353535;" d="M104,288h272v16H104V288z"/>
	<path style="fill:#353535;" d="M104,336h272v16H104V336z"/>
	<path style="fill:#353535;" d="M104,384h272v16H104V384z"/>
</g>
<g>
</g>
<g>
</g>
<g>
</g>
<g>
</g>
<g>
</g>
<g>
</g>
<g>
</g>
<g>
</g>
<g>
</g>
<g>
</g>
<g>
</g>
<g>
</g>
<g>
</g>
<g>
</g>
<g>
</g>
</svg>
