<?xml version="1.0"?>
<svg xmlns="http://www.w3.org/2000/svg" id="Capa_1" enable-background="new 0 0 512 512" height="512px" viewBox="0 0 512 512" width="512px" class=""><g><g><path d="m389.526 336.401-53.126 53.126c-4.023 4.023-10.546 4.023-14.569 0l-33.332-33.332 67.695-67.695 33.332 33.332c4.023 4.023 4.023 10.545 0 14.569z" fill="#2b4d66" data-original="#2B4D66"/><path d="m354.551 354.551h57.441v57.441h-57.441z" fill="#4a80aa" transform="matrix(.707 -.707 .707 .707 -158.756 383.272)" data-original="#4A80AA"/><path d="m512 448.577-.022 53.104c-.002 5.686-4.611 10.295-10.298 10.298l-53.103.021c-2.734.001-5.356-1.084-7.289-3.017l-64.27-64.27c-4.023-4.023-4.023-10.546 0-14.569l53.126-53.126c4.023-4.023 10.546-4.023 14.569 0l64.27 64.27c1.933 1.933 3.018 4.555 3.017 7.289z" fill="#407093" data-original="#407093"/><path d="m511.999 448.578-.025 40.831-97.111-97.111 15.28-15.28c4.023-4.023 10.546-4.023 14.569 0l64.27 64.27c1.933 1.932 3.019 4.555 3.017 7.29z" fill="#365e7d" data-original="#365E7D"/><circle cx="191.47" cy="191.47" fill="#407093" r="191.47" data-original="#407093"/><path d="m307.26 38.982c24.455 32.156 38.982 72.274 38.982 115.79 0 105.746-85.724 191.47-191.47 191.47-43.516 0-83.634-14.527-115.79-38.982 34.972 45.985 90.258 75.68 152.488 75.68 105.746 0 191.47-85.724 191.47-191.47 0-62.23-29.695-117.517-75.68-152.488z" fill="#365e7d" data-original="#365E7D"/><circle cx="191.47" cy="191.47" fill="#e4f6ff" r="140.411" data-original="#E4F6FF"/><path d="m276.262 79.553c17.878 23.561 28.494 52.935 28.494 84.792 0 77.547-62.864 140.411-140.411 140.411-31.857 0-61.231-10.616-84.792-28.494 25.641 33.791 66.227 55.619 111.917 55.619 77.547 0 140.411-62.864 140.411-140.411 0-45.69-21.828-86.276-55.619-111.917z" fill="#d3effb" data-original="#D3EFFB"/><g><g><path d="m170.662 272.04c-.703 0-1.418-.097-2.127-.3-4.103-1.172-6.479-5.449-5.306-9.551l41.623-145.684c1.172-4.104 5.451-6.479 9.552-5.307 4.103 1.173 6.479 5.45 5.306 9.552l-41.623 145.684c-.969 3.394-4.063 5.606-7.425 5.606z" fill="#9d66d5" data-original="#9D66D5" class="active-path" style="fill:#9D66D5"/></g></g><g><path d="m248.633 251.226c-1.925 0-3.852-.714-5.35-2.153-3.077-2.955-3.178-7.846-.222-10.925l44.812-46.679-44.812-46.678c-2.956-3.078-2.855-7.97.222-10.925 3.077-2.954 7.97-2.856 10.925.222l49.949 52.029c2.87 2.99 2.87 7.712 0 10.702l-49.949 52.03c-1.518 1.582-3.545 2.377-5.575 2.377z" fill="#9d66d5" data-original="#9D66D5" class="active-path" style="fill:#9D66D5"/></g><g><path d="m134.308 251.226c-2.03 0-4.057-.795-5.574-2.375l-49.949-52.03c-2.87-2.99-2.87-7.712 0-10.702l49.949-52.029c2.955-3.076 7.846-3.178 10.925-.222 3.077 2.955 3.178 7.846.222 10.925l-44.813 46.677 44.812 46.679c2.956 3.078 2.855 7.97-.222 10.925-1.498 1.438-3.426 2.152-5.35 2.152z" fill="#9d66d5" data-original="#9D66D5" class="active-path" style="fill:#9D66D5"/></g></g></g> </svg>
