<?xml version="1.0" encoding="iso-8859-1"?>
<!-- Generator: Adobe Illustrator 19.0.0, SVG Export Plug-In . SVG Version: 6.00 Build 0)  -->
<svg version="1.1" id="Capa_1" xmlns="http://www.w3.org/2000/svg" xmlns:xlink="http://www.w3.org/1999/xlink" x="0px" y="0px"
	 viewBox="0 0 480 480" style="enable-background:new 0 0 480 480;" xml:space="preserve">
<path style="fill:#8DC6F3;" d="M344,8H80c-8.837,0-16,7.163-16,16v432c0,8.837,7.163,16,16,16h320c8.837,0,16-7.163,16-16V80L344,8z
	"/>
<path style="fill:#5684A8;" d="M344,8v72c0,4.418,3.582,8,8,8h64v-8L344,8z"/>
<path style="fill:#FBB040;" d="M112,136h256v64H112V136z"/>
<path style="fill:#FFEB99;" d="M112,248h256v160H112V248z"/>
<g>
	<path style="fill:#353535;" d="M416.992,69.824l-62.64-62.776C349.839,2.55,343.732,0.017,337.36,0H80C66.745,0,56,10.745,56,24
		v432c0,13.255,10.745,24,24,24h320c13.255,0,24-10.745,24-24V86.768C424.014,80.412,421.492,74.313,416.992,69.824z M408,456
		c0,4.418-3.582,8-8,8H80c-4.418,0-8-3.582-8-8V24c0-4.418,3.582-8,8-8h256v56c0,13.255,10.745,24,24,24h32V80h-32
		c-4.418,0-8-3.582-8-8V27.336l53.664,53.784c1.501,1.495,2.343,3.529,2.336,5.648V456z"/>
	<path style="fill:#353535;" d="M104,48h16v16h-16V48z"/>
	<path style="fill:#353535;" d="M136,48h160v16H136V48z"/>
	<path style="fill:#353535;" d="M104,80h192v16H104V80z"/>
	<path style="fill:#353535;" d="M368,240H112c-4.418,0-8,3.582-8,8v160c0,4.418,3.582,8,8,8h256c4.418,0,8-3.582,8-8V248
		C376,243.582,372.418,240,368,240z M360,400H120V256h240V400z"/>
	<path style="fill:#353535;" d="M368,128H112c-4.418,0-8,3.582-8,8v64c0,4.418,3.582,8,8,8h256c4.418,0,8-3.582,8-8v-64
		C376,131.582,372.418,128,368,128z M360,192H120v-48h240V192z"/>
</g>
<g>
</g>
<g>
</g>
<g>
</g>
<g>
</g>
<g>
</g>
<g>
</g>
<g>
</g>
<g>
</g>
<g>
</g>
<g>
</g>
<g>
</g>
<g>
</g>
<g>
</g>
<g>
</g>
<g>
</g>
</svg>
